<svg width="20" height="20" viewBox="0 0 20 20" fill="none" xmlns="http://www.w3.org/2000/svg">
<path d="M12.8537 3.08141L12.668 2.74725C11.4455 0.546806 8.23132 0.700625 7.22462 3.00776L7.14632 3.1871L7.01712 3.13721C4.7036 2.24428 2.40933 4.47876 3.24088 6.81502L3.34148 7.09767L3.1301 7.17517C0.784718 8.03517 0.581348 11.2733 2.80071 12.4199L3.34148 12.6993L3.26028 12.9474C2.50706 15.2489 4.69656 17.4265 6.9939 16.6607L7.14632 16.6099L7.24582 16.8213C8.28012 19.0191 11.3534 19.1604 12.5849 17.0667L12.8537 16.6099L13.065 16.6675C15.1457 17.235 17.1179 15.4644 16.7771 13.3348L16.6585 12.5936L16.7642 12.5478C19.1296 11.5228 19.1296 8.16847 16.7642 7.14347L16.6585 7.09767L16.7504 6.88629C17.6341 4.85378 15.9464 2.63959 13.7524 2.95302L12.8537 3.08141Z" stroke="white" stroke-width="0.6"/>
<path d="M6.19513 9.84568L8.7317 12.3823L13.8049 7.30908" stroke="white"/>
<path d="M1.31891 0.965332L19.1768 18.8232" stroke="white" stroke-width="0.5"/>
</svg>
